<svg xmlns="http://www.w3.org/2000/svg" viewBox="0 0 76 76">
  <defs>
    <style>
      .cls-1 {
        fill: #8f90a6;
      }

      .cls-2 {
        fill: #fff;
      }
    </style>
  </defs>
  <g id="Layer_2" data-name="Layer 2">
    <g id="Layer_1-2" data-name="Layer 1">
      <g id="Twitter">
        <path class="cls-1" d="M12.34,0H63.56A12.44,12.44,0,0,1,76,12.44V63.56A12.44,12.44,0,0,1,63.56,76H12.44A12.44,12.44,0,0,1,0,63.56V12.34A12.34,12.34,0,0,1,12.34,0Z"/>
        <path class="cls-2" d="M65.46,20.82a22.75,22.75,0,0,1-5.55,1.59c.89-.15,2.2-1.77,2.73-2.42a10.41,10.41,0,0,0,1.84-3.36c0-.1.08-.22,0-.29a.35.35,0,0,0-.3,0,28.22,28.22,0,0,1-6.58,2.52.43.43,0,0,1-.45-.12,8.14,8.14,0,0,0-.58-.59,11.73,11.73,0,0,0-3.19-2,11.05,11.05,0,0,0-4.89-.79A11.84,11.84,0,0,0,40.1,19.8a11.25,11.25,0,0,0-2.23,4.48A11.91,11.91,0,0,0,37.75,29c0,.27,0,.3-.23.27-9-1.35-16.53-4.58-22.62-11.52-.26-.3-.41-.3-.62,0-2.66,4-1.37,10.4,2,13.55.45.42.9.84,1.39,1.22a11.41,11.41,0,0,1-4.36-1.22c-.27-.17-.4-.07-.42.23a6.36,6.36,0,0,0,.07,1.29,11.59,11.59,0,0,0,7.15,9.25,6.57,6.57,0,0,0,1.45.44,12.91,12.91,0,0,1-4.28.13c-.31-.06-.43.1-.31.4,1.88,5.13,5.95,6.66,9,7.53.41.07.82.07,1.22.17,0,0,0,0-.07.07-1,1.54-4.51,2.69-6.14,3.26a22.08,22.08,0,0,1-9.33,1.19c-.5-.07-.61-.07-.74,0s0,.2.14.33c.64.42,1.29.8,1.95,1.16a31,31,0,0,0,6.23,2.49c11.21,3.09,23.83.82,32.24-7.54,6.61-6.56,8.93-15.62,8.93-24.68,0-.36.42-.55.67-.74a22,22,0,0,0,4.38-4.56,1.39,1.39,0,0,0,.29-.88v-.05C65.68,20.68,65.68,20.72,65.46,20.82Z"/>
      </g>
    </g>
  </g>
</svg>
